{
  "accessors": [
    {
      "bufferView": 1,
      "componentType": 5126,
      "count": 65532,
      "max": [
        757.5364990234375,
        618.5430297851563,
        1931.8609619140625
      ],
      "min": [
        -429.9452209472656,
        -371.365478515625,
        313.583251953125
      ],
      "type": "VEC3"
    },
    {
      "bufferView": 1,
      "byteOffset": 786384,
      "componentType": 5126,
      "count": 65532,
      "max": [
        0.9999998807907104,
        0.9999960660934448,
        0.9999998211860657
      ],
      "min": [
        -0.9999995231628418,
        -0.9999996423721313,
        -0.9999993443489075
      ],
      "type": "VEC3"
    },
    {
      "bufferView": 0,
      "componentType": 5125,
      "count": 249072,
      "type": "SCALAR"
    },
    {
      "bufferView": 1,
      "byteOffset": 1572768,
      "componentType": 5126,
      "count": 65532,
      "max": [
        508.7198791503906,
        613.26171875,
        2001.039306640625
      ],
      "min": [
        -411.969482421875,
        -337.492431640625,
        617.4126586914063
      ],
      "type": "VEC3"
    },
    {
      "bufferView": 1,
      "byteOffset": 2359152,
      "componentType": 5126,
      "count": 65532,
      "max": [
        0.9999951720237732,
        0.9999648332595825,
        0.999997615814209
      ],
      "min": [
        -0.9998917579650879,
        -0.9999982118606567,
        -0.9999833703041077
      ],
      "type": "VEC3"
    },
    {
      "bufferView": 0,
      "byteOffset": 996288,
      "componentType": 5125,
      "count": 180261,
      "type": "SCALAR"
    },
    {
      "bufferView": 1,
      "byteOffset": 3145536,
      "componentType": 5126,
      "count": 65532,
      "max": [
        507.2538757324219,
        618.5430297851563,
        2012.869873046875
      ],
      "min": [
        -416.56646728515625,
        -379.7943115234375,
        232.5373992919922
      ],
      "type": "VEC3"
    },
    {
      "bufferView": 1,
      "byteOffset": 3931920,
      "componentType": 5126,
      "count": 65532,
      "max": [
        0.9999885559082031,
        0.9999997019767761,
        0.9999985098838806
      ],
      "min": [
        -0.9999830722808838,
        -0.9999967813491821,
        -1.0
      ],
      "type": "VEC3"
    },
    {
      "bufferView": 0,
      "byteOffset": 1717332,
      "componentType": 5125,
      "count": 189351,
      "type": "SCALAR"
    },
    {
      "bufferView": 1,
      "byteOffset": 4718304,
      "componentType": 5126,
      "count": 65532,
      "max": [
        333.67999267578125,
        594.5528564453125,
        1981.2396240234375
      ],
      "min": [
        -475.1320495605469,
        -451.5083312988281,
        199.53440856933594
      ],
      "type": "VEC3"
    },
    {
      "bufferView": 1,
      "byteOffset": 5504688,
      "componentType": 5126,
      "count": 65532,
      "max": [
        0.9999737739562988,
        0.9999991655349731,
        0.9999998211860657
      ],
      "min": [
        -0.999975860118866,
        -0.9999860525131226,
        -0.9999998807907104
      ],
      "type": "VEC3"
    },
    {
      "bufferView": 0,
      "byteOffset": 2474736,
      "componentType": 5125,
      "count": 193848,
      "type": "SCALAR"
    },
    {
      "bufferView": 1,
      "byteOffset": 6291072,
      "componentType": 5126,
      "count": 65532,
      "max": [
        153.15902709960938,
        258.10101318359375,
        1999.53125
      ],
      "min": [
        -644.9956665039063,
        -317.51873779296875,
        235.71633911132813
      ],
      "type": "VEC3"
    },
    {
      "bufferView": 1,
      "byteOffset": 7077456,
      "componentType": 5126,
      "count": 65532,
      "max": [
        0.9999998807907104,
        0.9999986290931702,
        0.9999974966049194
      ],
      "min": [
        -0.9999897480010986,
        -0.9999982118606567,
        -0.9999998807907104
      ],
      "type": "VEC3"
    },
    {
      "bufferView": 0,
      "byteOffset": 3250128,
      "componentType": 5125,
      "count": 184530,
      "type": "SCALAR"
    },
    {
      "bufferView": 1,
      "byteOffset": 7863840,
      "componentType": 5126,
      "count": 65533,
      "max": [
        2.6736807823181152,
        611.8782348632813,
        1748.1168212890625
      ],
      "min": [
        -721.3444213867188,
        -451.1136169433594,
        321.3390808105469
      ],
      "type": "VEC3"
    },
    {
      "bufferView": 1,
      "byteOffset": 8650236,
      "componentType": 5126,
      "count": 65533,
      "max": [
        0.9999411106109619,
        0.999997615814209,
        0.9999916553497314
      ],
      "min": [
        -0.9999907612800598,
        -0.9999894499778748,
        -0.9999998211860657
      ],
      "type": "VEC3"
    },
    {
      "bufferView": 0,
      "byteOffset": 3988248,
      "componentType": 5125,
      "count": 193554,
      "type": "SCALAR"
    },
    {
      "bufferView": 1,
      "byteOffset": 9436632,
      "componentType": 5126,
      "count": 65532,
      "max": [
        -42.345882415771484,
        612.4797973632813,
        1856.593505859375
      ],
      "min": [
        -736.872314453125,
        -308.7998352050781,
        440.26519775390625
      ],
      "type": "VEC3"
    },
    {
      "bufferView": 1,
      "byteOffset": 10223016,
      "componentType": 5126,
      "count": 65532,
      "max": [
        0.9999920129776001,
        0.9999924898147583,
        0.9999854564666748
      ],
      "min": [
        -0.999989926815033,
        -0.9999992847442627,
        -0.9999781847000122
      ],
      "type": "VEC3"
    },
    {
      "bufferView": 0,
      "byteOffset": 4762464,
      "componentType": 5125,
      "count": 149262,
      "type": "SCALAR"
    },
    {
      "bufferView": 1,
      "byteOffset": 11009400,
      "componentType": 5126,
      "count": 65532,
      "max": [
        155.37930297851563,
        495.9959716796875,
        1953.765869140625
      ],
      "min": [
        -218.4836883544922,
        -416.6736145019531,
        198.0294189453125
      ],
      "type": "VEC3"
    },
    {
      "bufferView": 1,
      "byteOffset": 11795784,
      "componentType": 5126,
      "count": 65532,
      "max": [
        0.9999995827674866,
        0.9999931454658508,
        0.9999863505363464
      ],
      "min": [
        -0.9999995827674866,
        -0.9999815225601196,
        -0.9999588131904602
      ],
      "type": "VEC3"
    },
    {
      "bufferView": 0,
      "byteOffset": 5359512,
      "componentType": 5125,
      "count": 155259,
      "type": "SCALAR"
    },
    {
      "bufferView": 1,
      "byteOffset": 12582168,
      "componentType": 5126,
      "count": 2881,
      "max": [
        92.23866271972656,
        82.80512237548828,
        1091.1077880859375
      ],
      "min": [
        -6.393073081970215,
        -98.89495086669922,
        906.2504272460938
      ],
      "type": "VEC3"
    },
    {
      "bufferView": 1,
      "byteOffset": 12616740,
      "componentType": 5126,
      "count": 2881,
      "max": [
        0.9997991323471069,
        0.9992499947547913,
        0.9993085265159607
      ],
      "min": [
        -0.9965689182281494,
        -0.9993662238121033,
        -0.9990839958190918
      ],
      "type": "VEC3"
    },
    {
      "bufferView": 0,
      "byteOffset": 5980548,
      "componentType": 5125,
      "count": 4863,
      "type": "SCALAR"
    }
  ],
  "asset": {
    "extras": {
      "author": "Mammal Research Institute PAS, Poland (https://sketchfab.com/MammalResearchInstitutePAS)",
      "license": "CC-BY-4.0 (http://creativecommons.org/licenses/by/4.0/)",
      "source": "https://sketchfab.com/3d-models/muscardinus-avellanarius-hazel-dormouse-95f67e011d4d40bf9b928ada32c2091b",
      "title": "Muscardinus avellanarius (Hazel dormouse)"
    },
    "generator": "Sketchfab-11.30.0",
    "version": "2.0"
  },
  "bufferViews": [
    {
      "buffer": 0,
      "byteLength": 6000000,
      "name": "floatBufferViews",
      "target": 34963
    },
    {
      "buffer": 0,
      "byteLength": 12651312,
      "byteOffset": 6000000,
      "byteStride": 12,
      "name": "floatBufferViews",
      "target": 34962
    }
  ],
  "buffers": [
    {
      "byteLength": 18651312,
      "uri": "scene.bin"
    }
  ],
  "materials": [
    {
      "doubleSided": true,
      "name": "Scene_-_Root",
      "pbrMetallicRoughness": {
        "baseColorFactor": [
          0.015234630725297266,
          0.032720404777080464,
          0.07125582326454592,
          1.0
        ],
        "roughnessFactor": 0.3173105570046635
      }
    }
  ],
  "meshes": [
    {
      "name": "Object_0",
      "primitives": [
        {
          "attributes": {
            "NORMAL": 1,
            "POSITION": 0
          },
          "indices": 2,
          "material": 0,
          "mode": 4
        }
      ]
    },
    {
      "name": "Object_1",
      "primitives": [
        {
          "attributes": {
            "NORMAL": 4,
            "POSITION": 3
          },
          "indices": 5,
          "material": 0,
          "mode": 4
        }
      ]
    },
    {
      "name": "Object_2",
      "primitives": [
        {
          "attributes": {
            "NORMAL": 7,
            "POSITION": 6
          },
          "indices": 8,
          "material": 0,
          "mode": 4
        }
      ]
    },
    {
      "name": "Object_3",
      "primitives": [
        {
          "attributes": {
            "NORMAL": 10,
            "POSITION": 9
          },
          "indices": 11,
          "material": 0,
          "mode": 4
        }
      ]
    },
    {
      "name": "Object_4",
      "primitives": [
        {
          "attributes": {
            "NORMAL": 13,
            "POSITION": 12
          },
          "indices": 14,
          "material": 0,
          "mode": 4
        }
      ]
    },
    {
      "name": "Object_5",
      "primitives": [
        {
          "attributes": {
            "NORMAL": 16,
            "POSITION": 15
          },
          "indices": 17,
          "material": 0,
          "mode": 4
        }
      ]
    },
    {
      "name": "Object_6",
      "primitives": [
        {
          "attributes": {
            "NORMAL": 19,
            "POSITION": 18
          },
          "indices": 20,
          "material": 0,
          "mode": 4
        }
      ]
    },
    {
      "name": "Object_7",
      "primitives": [
        {
          "attributes": {
            "NORMAL": 22,
            "POSITION": 21
          },
          "indices": 23,
          "material": 0,
          "mode": 4
        }
      ]
    },
    {
      "name": "Object_8",
      "primitives": [
        {
          "attributes": {
            "NORMAL": 25,
            "POSITION": 24
          },
          "indices": 26,
          "material": 0,
          "mode": 4
        }
      ]
    }
  ],
  "nodes": [
    {
      "children": [
        1
      ],
      "matrix": [
        1.0,
        0.0,
        0.0,
        0.0,
        0.0,
        2.220446049250313e-16,
        -1.0,
        0.0,
        0.0,
        1.0,
        2.220446049250313e-16,
        0.0,
        0.0,
        0.0,
        0.0,
        1.0
      ],
      "name": "Sketchfab_model"
    },
    {
      "children": [
        2,
        3,
        4,
        5,
        6,
        7,
        8,
        9,
        10
      ],
      "name": "Geode"
    },
    {
      "mesh": 0,
      "name": "Object_2"
    },
    {
      "mesh": 1,
      "name": "Object_3"
    },
    {
      "mesh": 2,
      "name": "Object_4"
    },
    {
      "mesh": 3,
      "name": "Object_5"
    },
    {
      "mesh": 4,
      "name": "Object_6"
    },
    {
      "mesh": 5,
      "name": "Object_7"
    },
    {
      "mesh": 6,
      "name": "Object_8"
    },
    {
      "mesh": 7,
      "name": "Object_9"
    },
    {
      "mesh": 8,
      "name": "Object_10"
    }
  ],
  "scene": 0,
  "scenes": [
    {
      "name": "Sketchfab_Scene",
      "nodes": [
        0
      ]
    }
  ]
}
